<svg xmlns="http://www.w3.org/2000/svg" viewBox="-393 53 23.656 23.413">
  <defs>
    <style>
      .cls-1 {
        fill: #d1c6b8;
      }

      .cls-2 {
        fill: #b4a99a;
      }
    </style>
  </defs>
  <g id="carrot_1_" data-name="carrot (1)" transform="translate(-392.998 52.698)">
    <path id="Path_117" data-name="Path 117" class="cls-1" d="M46.943,17.472a9.323,9.323,0,0,1-1.439,1.1l-.234.147-.275.03a8.08,8.08,0,0,0-2.439.749,6.413,6.413,0,0,1,1.073-.095,4.861,4.861,0,0,1,4.033,2.064l.054.072A.4.4,0,0,0,48,21.7l.042,0a.4.4,0,0,0,.268-.1,2.806,2.806,0,0,0,.342-.36,1.918,1.918,0,0,0,.184-2.366,3.765,3.765,0,0,0-1.811-1.483C46.995,17.418,46.971,17.446,46.943,17.472Z" transform="translate(-25.5 -10.239)"/>
    <path id="Path_118" data-name="Path 118" class="cls-1" d="M30.188,1.733a3.665,3.665,0,0,1,1.035.623A4.232,4.232,0,0,1,33.04,5.985a6.449,6.449,0,0,0,.453-1.774l.023-.278.143-.24A9.98,9.98,0,0,1,34.5,2.482l.212-.2.039-.028A3.339,3.339,0,0,0,33.54.905a2.879,2.879,0,0,0-1.7-.6,2.458,2.458,0,0,0-1.123.274,2.547,2.547,0,0,0-.679.5.4.4,0,0,0-.1.368A.4.4,0,0,0,30.188,1.733Z" transform="translate(-17.932)"/>
    <path id="Path_119" data-name="Path 119" class="cls-2" d="M22.419,13.05a1.206,1.206,0,0,1-.851-.487l-.048-.063a4.136,4.136,0,0,0-4.33-1.661l-.354.061c-.477-.179-.994-.349-1.547-.509a.4.4,0,0,0,.009-.121.4.4,0,0,0-.047-.15,13.535,13.535,0,0,1,1.5-.814l.071-.03-.011,0a8.777,8.777,0,0,1,2.59-.774l.092-.01.078-.049a8.507,8.507,0,0,0,1.315-1,2.725,2.725,0,0,0,1-2.117,2.806,2.806,0,0,0-1.055-1.906A2.523,2.523,0,0,0,19.4,2.978a3.979,3.979,0,0,0-2.14.733l-.071.067a9.265,9.265,0,0,0-.772,1.115l-.048.08-.008.093a7.121,7.121,0,0,1-.469,1.909V6.962c-.014.035-.024.069-.038.105l-.035.089a13.782,13.782,0,0,1-1.111,2.151l-.036.058-.016.067c-.026.111-.047.207-.063.281q-.144-.557-.314-1.07l.027-1.88A3.427,3.427,0,0,0,12.814,3.79l-.034-.026a2.9,2.9,0,0,0-.8-.489,1.191,1.191,0,0,1-.659-1.654,1.92,1.92,0,0,0-.354.086A1.618,1.618,0,0,0,9.876,3.124a1.832,1.832,0,0,0,.91,1.75A5.224,5.224,0,0,1,12.657,6.9a2.626,2.626,0,0,0-1.077.137,6.841,6.841,0,0,0-1.962,1.75l.263.9a.436.436,0,0,1,.014.068,2.843,2.843,0,0,0,1,1.921.4.4,0,0,1-.463.655A3.637,3.637,0,0,1,9.1,9.879l-.106-.366c-.75.905-1.582,1.992-2.432,3.168l.146,1.267a1.78,1.78,0,0,0,.621,1.2.4.4,0,0,1-.463.655,2.59,2.59,0,0,1-.956-1.768l-.044-.38A58.933,58.933,0,0,0,.059,23.4a.836.836,0,0,0,.078.78.768.768,0,0,0,.643.328h0a.928.928,0,0,0,.326-.061,46.585,46.585,0,0,0,7.161-4.025l-.535-.14a2.582,2.582,0,0,1-1.737-.952.4.4,0,1,1,.655-.463,1.778,1.778,0,0,0,1.2.621.362.362,0,0,1,.058.011l1.261.331c1.448-.964,2.878-1.97,4.139-2.917h-.432l-.044,0a3.645,3.645,0,0,1-2.488-1.339A.4.4,0,1,1,11,15.107a2.839,2.839,0,0,0,1.9,1h1.453c1.726-1.358,2.965-2.516,3.183-3.122a2.606,2.606,0,0,0,.148-.855,5.227,5.227,0,0,1,1.983,1.477,2.363,2.363,0,0,0,1.864.98,1.751,1.751,0,0,0,1.465-.746,1.667,1.667,0,0,0,.3-1.062,1.2,1.2,0,0,1-.758.274A1.006,1.006,0,0,1,22.419,13.05ZM3.977,20.733a.4.4,0,0,1-.362.228.4.4,0,0,1-.173-.039,5.66,5.66,0,0,1-.909-.545.4.4,0,1,1,.474-.646,4.89,4.89,0,0,0,.78.468A.4.4,0,0,1,3.977,20.733Zm12.438-7.646a.4.4,0,0,1-.375.259.4.4,0,0,1-.143-.026,6.453,6.453,0,0,1-2.585-1.9.4.4,0,1,1,.609-.521,5.656,5.656,0,0,0,2.261,1.67A.4.4,0,0,1,16.415,13.088Z" transform="translate(0 -0.79)"/>
  </g>
</svg>
