<svg xmlns="http://www.w3.org/2000/svg" viewBox="-393 125 26.702 23.142">
  <defs>
    <style>
      .cls-1 {
        fill: #b4a99a;
      }

      .cls-2 {
        fill: #bfb5a8;
      }

      .cls-3 {
        fill: #d1c6b8;
      }
    </style>
  </defs>
  <g id="tractor_1_" data-name="tractor (1)" transform="translate(-393 124.001)">
    <g id="Group_73" data-name="Group 73" transform="translate(0 0.999)">
      <g id="Group_72" data-name="Group 72" transform="translate(0 0)">
        <path id="Path_132" data-name="Path 132" class="cls-1" d="M26.256,23.251H19.848a3.112,3.112,0,0,0,.178-5.225l0-3.676a.445.445,0,0,0-.392-.441L16.973,13.6l1.2-6.368h6.524a.457.457,0,0,0,.311-.129l1.566-1.566a.445.445,0,0,0,0-.627L22.794,1.129a.445.445,0,0,0-.627,0L20.6,2.7a.457.457,0,0,0-.129.311V5a.46.46,0,0,0,.129.316L21.619,6.34H17.988l-.89-.89h2.038a.445.445,0,0,0,0-.89H16.021a.434.434,0,0,0-.151.027.344.344,0,0,0-.071.031.545.545,0,0,0-.062.044c-.009.009-.022.018-.031.027a.473.473,0,0,0-.044.053.255.255,0,0,0-.036.058.184.184,0,0,0-.018.044.374.374,0,0,0-.022.076L13.92,13.238l-1.46-.174V7.675a.445.445,0,0,0-.445-.445H4.005a.445.445,0,1,0,0,.89H4.45v4.005H4.005a.445.445,0,1,0,0,.89H4.45v.912a4.9,4.9,0,0,0-1.6,9.323H.445a.445.445,0,1,0,0,.89H10.681a.445.445,0,1,0,0-.89H6.933A4.915,4.915,0,0,0,9.6,20.136h5.563a2.471,2.471,0,0,0-.036.445,3.11,3.11,0,0,0,1.513,2.67H12.461a.445.445,0,1,0,0,.89h13.8a.445.445,0,0,0,0-.89ZM4.9,21.026A2.225,2.225,0,1,1,7.12,18.8,2.225,2.225,0,0,1,4.9,21.026Zm4.877-1.78H9.256a.445.445,0,0,0-.436.356A4.009,4.009,0,0,0,4.9,14.8a.445.445,0,0,0,.445-.445v-.423A4.9,4.9,0,0,1,9.79,18.8C9.79,18.947,9.786,19.1,9.773,19.246Zm2.283-3.115a.017.017,0,0,1-.013,0s0,0-.009,0-.009,0-.018,0H10.632a.45.45,0,0,1-.4-.258s0-.009,0-.013a5.007,5.007,0,0,0-2.385-2.385s-.009,0-.013,0a4.762,4.762,0,0,0-2.038-.454H5.34v-.89h.445a5.585,5.585,0,0,1,1.78.285V8.12h.89v4.668a5.919,5.919,0,0,1,2.452,2.452h.663V13.46a.445.445,0,0,0,.392.441l.5.058v1.308l5.376.418a.451.451,0,0,1,.409.481.445.445,0,0,1-.445.409h-.036Zm6.195,5.8a1.342,1.342,0,1,1,1.344-1.34A1.342,1.342,0,0,1,18.25,21.929Z" transform="translate(0 -0.999)"/>
        <path id="Path_135" data-name="Path 135" class="cls-2" d="M1.335,0A1.335,1.335,0,1,1,0,1.335,1.335,1.335,0,0,1,1.335,0Z" transform="translate(3.56 16.466)"/>
        <circle id="Ellipse_3" data-name="Ellipse 3" class="cls-3" cx="0.452" cy="0.452" r="0.452" transform="translate(17.803 19.136)"/>
      </g>
    </g>
  </g>
</svg>
