<svg xmlns="http://www.w3.org/2000/svg" viewBox="-416.017 -142 188.597 47.61"><defs><style>.a{fill:#d1c6b8;}.b{fill:#ef4822;}.c{fill:#fff;}</style></defs><g transform="translate(-444 -174)"><g transform="translate(44.417 32)"><path class="a" d="M109.933,12.085c-3.717,4.188-11.707,3.2-11.707,3.2s-1.968-7.8,1.749-12.01,11.707-3.2,11.707-3.2S113.651,7.9,109.933,12.085Z" transform="translate(-97.705 0.031)"/></g><g transform="translate(44.369 48.184)"><path class="b" d="M109.613,108.311c-3.8,4.121-11.758,2.961-11.758,2.961s-1.817-7.839,1.985-11.977S111.6,96.334,111.6,96.334,113.414,104.19,109.613,108.311Z" transform="translate(-97.421 -96.179)"/></g><g transform="translate(27.983 32)"><path class="b" d="M2.275,12.085c3.717,4.188,11.707,3.2,11.707,3.2s1.968-7.8-1.749-12.01S.526.075.526.075-1.442,7.9,2.275,12.085Z" transform="translate(-0.005 0.031)"/></g><g transform="translate(27.983 48.098)"><path class="a" d="M2.275,107.785c3.717,4.188,11.707,3.2,11.707,3.2s1.968-7.8-1.749-12.01S.526,95.775.526,95.775-1.442,103.6,2.275,107.785Z" transform="translate(-0.005 -95.669)"/></g><g transform="translate(44.417 64.196)"><path class="a" d="M109.933,203.485c-3.717,4.188-11.707,3.2-11.707,3.2s-1.968-7.8,1.749-12.01,11.707-3.2,11.707-3.2S113.651,199.28,109.933,203.485Z" transform="translate(-97.705 -191.369)"/></g><g transform="translate(27.983 64.196)"><path class="b" d="M2.275,203.485c3.717,4.188,11.707,3.2,11.707,3.2s1.968-7.8-1.749-12.01-11.707-3.2-11.707-3.2S-1.442,199.28,2.275,203.485Z" transform="translate(-0.005 -191.369)"/></g><g transform="translate(75.165 34.36)"><path class="c" d="M291,24.934a49.737,49.737,0,0,1,1.85,5.9,57.123,57.123,0,0,1,2.1-7.132L298.364,14h6.19L296.9,34.639c-1.648,4.424-2.187,6.157-3.3,7.384-1.6,1.733-3.97,2.1-5.181,2.321l-1.85.3-1.093-4.256.723-.219a6.387,6.387,0,0,0,2.187-.925,6.456,6.456,0,0,0,2.523-3.583l.5-1.346-2.86.387L280.5,14.017h6.459Z" transform="translate(-280.5 -14)"/></g><g transform="translate(99.168 41.576)"><path class="c" d="M428.331,56.984A8.6,8.6,0,0,1,428.717,59a6.773,6.773,0,0,1,5.315-2.1,7.583,7.583,0,0,1,4.256,1.346c3.583,2.405,4,6.964,4,9.79,0,4.306-.925,6.88-2.994,8.982a7.949,7.949,0,0,1-5.77,2.49,9.165,9.165,0,0,1-4.508-1.177,11.4,11.4,0,0,1,.084,1.312v7.216l-5.568,1.48V63.309a24.486,24.486,0,0,0-.336-5.433Zm.757,16.754A5.538,5.538,0,0,0,432.334,75a3.345,3.345,0,0,0,3.078-1.85,13.049,13.049,0,0,0,.723-4.979c0-2.86-.252-4.054-.555-4.76a2.593,2.593,0,0,0-2.658-1.817,5.625,5.625,0,0,0-3.835,1.648Z" transform="translate(-423.2 -56.9)"/></g><g transform="translate(121.423 41.576)"><path class="c" d="M572.489,59.978c2.237,2.523,2.658,5.4,2.658,8.226s-.421,5.686-2.658,8.225a9.88,9.88,0,0,1-14.332,0c-2.237-2.523-2.658-5.4-2.658-8.225s.42-5.686,2.658-8.226a9.88,9.88,0,0,1,14.332,0Zm-9.622,2.237c-.892,1.177-1.144,3.162-1.144,5.988s.252,4.811,1.144,5.988a2.785,2.785,0,0,0,2.439,1.177,2.827,2.827,0,0,0,2.439-1.177c.891-1.177,1.144-3.162,1.144-5.988s-.252-4.811-1.144-5.988a2.785,2.785,0,0,0-2.439-1.177A2.827,2.827,0,0,0,562.868,62.215Z" transform="translate(-555.5 -56.9)"/></g><g transform="translate(143.105 41.543)"><path class="c" d="M702.55,56.7v8.764h.841a3.589,3.589,0,0,0,2.187-.639,3.873,3.873,0,0,0,.892-1.985l.471-2.1a4.94,4.94,0,0,1,1.312-2.658,5.817,5.817,0,0,1,3.331-1.093l2.019-.168,1.009,3.835-.925.219a2.939,2.939,0,0,0-1.093.421,2.891,2.891,0,0,0-.892,1.43l-.723,1.934a3.786,3.786,0,0,1-2.91,2.691,4.091,4.091,0,0,1,3.028,3.078l1.06,2.658a2.961,2.961,0,0,0,1.06,1.6,3.114,3.114,0,0,0,1.262.5l.757.168-1.009,3.886-1.85-.135c-1.43-.084-3.246-.219-4.306-1.4a6.722,6.722,0,0,1-1.228-2.691l-.723-2.994a4.055,4.055,0,0,0-1.06-2.069,3.226,3.226,0,0,0-2.069-.555h-.471v9.4h-5.4V69.4h-.471a3.225,3.225,0,0,0-2.069.555,4.055,4.055,0,0,0-1.06,2.069l-.723,2.994a6.514,6.514,0,0,1-1.228,2.691c-1.06,1.177-2.859,1.312-4.306,1.4l-1.85.135L684.4,75.355l.757-.168a3.021,3.021,0,0,0,1.262-.5,2.961,2.961,0,0,0,1.06-1.6l1.06-2.658a4.146,4.146,0,0,1,3.028-3.078,3.838,3.838,0,0,1-2.91-2.691l-.723-1.934a2.822,2.822,0,0,0-.892-1.43,2.939,2.939,0,0,0-1.093-.421l-.925-.219,1.009-3.835,2.018.168a5.816,5.816,0,0,1,3.33,1.093,4.94,4.94,0,0,1,1.312,2.658l.471,2.1a3.872,3.872,0,0,0,.891,1.985,3.617,3.617,0,0,0,2.187.639h.841v-7.7Z" transform="translate(-684.4 -56.7)"/></g><g transform="translate(175.637 41.593)"><path class="c" d="M893.9,80.179a6.1,6.1,0,0,1-3.028-2.607,13.741,13.741,0,0,1-1.312,1.144,6.967,6.967,0,0,1-4.34,1.177,7.977,7.977,0,0,1-5.4-1.682,6.6,6.6,0,0,1-2.019-5.063c0-2.775,1.009-5.013,3.751-6.274a16.81,16.81,0,0,1,6.543-1.144,11.558,11.558,0,0,1,1.346.05v-.892c0-2.49-.5-3.246-2.49-3.246a11.285,11.285,0,0,0-6.274,2.49l-2.405-4.054a19.306,19.306,0,0,1,3.465-1.766A13.268,13.268,0,0,1,887.506,57c4.34,0,6.325,1.682,7.132,3.8a12.758,12.758,0,0,1,.387,3.5v.387l-.135,7.25c0,.3-.05.639-.05.925a4.334,4.334,0,0,0,2.069,3.886ZM889.1,69.633c-1.177,0-3.3.05-4.306.807a2.9,2.9,0,0,0-.976,2.355c0,1.817,1.009,2.944,2.489,2.944a4,4,0,0,0,2.944-1.48l.084-4.643H889.1Z" transform="translate(-877.8 -57)"/></g><g transform="translate(198.699 41.543)"><path class="c" d="M1014.9,78.837V57.76l5.568-1.06v9.958c0,1.514-.134,3.633-.252,4.929.589-1.4,1.682-4.054,2.406-5.4l4.39-8.427,5.77-1.06V78.837h-5.568V71c0-1.934.051-3.751.252-6.19a29.938,29.938,0,0,1-2.153,5.1l-4.643,8.932Z" transform="translate(-1014.9 -56.7)"/></g><g transform="translate(200.549 32.392)"><path class="b" d="M1040.063,3.528a7.09,7.09,0,0,1-2.355,3.717,7.837,7.837,0,0,1-4.727,1.4,7.767,7.767,0,0,1-4.726-1.4,7.8,7.8,0,0,1-2.355-3.717l2.994-1.228a4.649,4.649,0,0,0,1.514,1.514,4.644,4.644,0,0,0,2.573.589,4.824,4.824,0,0,0,2.607-.589,4.894,4.894,0,0,0,1.48-1.514Z" transform="translate(-1025.9 -2.3)"/></g><g transform="translate(131.633 72.174)"><g transform="translate(0 0.017)"><path class="c" d="M617.832,242.9a1.467,1.467,0,0,1-1.211-.589,2.227,2.227,0,0,1-.421-1.362,2.465,2.465,0,0,1,.252-1.161,1.568,1.568,0,0,1,1.4-.892,1.519,1.519,0,0,1,.959.3l-.269.353a1.124,1.124,0,0,0-.69-.219.916.916,0,0,0-.858.555,3.027,3.027,0,0,0-.05,1.934,1.011,1.011,0,0,0,.959.639,1.117,1.117,0,0,0,.707-.235l.269.353A1.672,1.672,0,0,1,617.832,242.9Z" transform="translate(-616.2 -238.9)"/></g><g transform="translate(3.448 0.942)"><path class="c" d="M636.7,247.428V244.4h1.9l-.067.454h-1.278v.791h1.06v.437h-1.06v.891h1.4v.454Z" transform="translate(-636.7 -244.4)"/></g><g transform="translate(5.618 0.942)"><path class="c" d="M650.777,245.325c-.017.387-.05.69-.084,1.093a1.272,1.272,0,0,1-.3.807.9.9,0,0,1-.538.2l-.168.017-.084-.353.118-.034a.734.734,0,0,0,.3-.151,1.719,1.719,0,0,0,.235-.976c.034-.454.051-.622.051-.875l.034-.656h1.783v3.028h-.538v-2.59h-.757Z" transform="translate(-649.6 -244.4)"/></g><g transform="translate(9.201 0.925)"><path class="c" d="M671.438,245.461h.454a1.37,1.37,0,0,1,.858.219.846.846,0,0,1,.353.74.785.785,0,0,1-.336.706,1.807,1.807,0,0,1-.942.2H670.9V244.3h.538Zm.3,1.43a1.376,1.376,0,0,0,.521-.067.433.433,0,0,0,.252-.437.386.386,0,0,0-.2-.387,1.2,1.2,0,0,0-.589-.1h-.32v.992Z" transform="translate(-670.9 -244.3)"/></g><g transform="translate(11.977 0.875)"><path class="c" d="M688.864,247.129a1.4,1.4,0,0,1-1.463-1.514,1.525,1.525,0,0,1,2.338-1.379l-.269.353a1.043,1.043,0,0,0-.589-.168.821.821,0,0,0-.74.421,1.4,1.4,0,0,0-.151.723,1.171,1.171,0,0,0,.235.841.811.811,0,0,0,.673.286,1.171,1.171,0,0,0,.622-.185l.252.336A1.282,1.282,0,0,1,688.864,247.129Z" transform="translate(-687.4 -244)"/></g><g transform="translate(15.105 0.908)"><path class="c" d="M708.3,244.536l-.067.017a.7.7,0,0,0-.252.118.392.392,0,0,0-.118.252l-.067.235a.939.939,0,0,1-.151.353.494.494,0,0,1-.236.151,1.07,1.07,0,0,1,.2.118.729.729,0,0,1,.185.336l.135.488a.748.748,0,0,0,.1.2.513.513,0,0,0,.2.1l.118.034-.067.353-.135-.017a.913.913,0,0,1-.488-.118.649.649,0,0,1-.219-.4l-.1-.454a.628.628,0,0,0-.151-.336.461.461,0,0,0-.353-.1h-.286v1.4H706v-3.028h.538v1.211h.236a.606.606,0,0,0,.437-.1.617.617,0,0,0,.151-.353l.05-.269a.536.536,0,0,1,.168-.353.856.856,0,0,1,.437-.151l.185-.017Z" transform="translate(-706 -244.2)"/></g><g transform="translate(17.881 0.892)"><path class="c" d="M723.93,247.229a1.573,1.573,0,0,1-.034-3.129,1.377,1.377,0,0,1,1.413,1.564C725.309,246.573,724.905,247.229,723.93,247.229Zm-.034-2.708a.711.711,0,0,0-.639.32,1.6,1.6,0,0,0-.151.791,1.835,1.835,0,0,0,.185.908.7.7,0,0,0,.656.286c.673,0,.774-.589.774-1.11C724.72,245.126,724.636,244.521,723.9,244.521Z" transform="translate(-722.5 -244.1)"/></g><g transform="translate(21.094 0.942)"><path class="c" d="M743.72,247.428l-.74-1.211-.706,1.211H741.6l1.026-1.615-.908-1.413h.656l.572.959.572-.959h.639l-.875,1.379,1.06,1.648Z" transform="translate(-741.6 -244.4)"/></g><g transform="translate(24.29 0.892)"><path class="c" d="M762.03,247.229A1.573,1.573,0,0,1,762,244.1a1.377,1.377,0,0,1,1.413,1.564C763.409,246.573,763.005,247.229,762.03,247.229ZM762,244.521a.711.711,0,0,0-.639.32,1.6,1.6,0,0,0-.151.791,1.834,1.834,0,0,0,.185.908.7.7,0,0,0,.656.286c.673,0,.774-.589.774-1.11C762.82,245.126,762.736,244.521,762,244.521Z" transform="translate(-760.6 -244.1)"/></g><g transform="translate(27.671 0.892)"><path class="c" d="M781.305,245.849v-.437h.219a.967.967,0,0,0,.521-.1.368.368,0,0,0,.168-.353.386.386,0,0,0-.135-.32.634.634,0,0,0-.454-.135.855.855,0,0,0-.37.067.984.984,0,0,0-.286.168l-.219-.336a1.626,1.626,0,0,1,.976-.3,1.292,1.292,0,0,1,.774.219.716.716,0,0,1,.286.589.634.634,0,0,1-.185.488.652.652,0,0,1-.337.185.978.978,0,0,1,.437.219.726.726,0,0,1,.219.521.815.815,0,0,1-.3.639,1.39,1.39,0,0,1-.908.269,1.694,1.694,0,0,1-1.009-.269l.235-.353a1.353,1.353,0,0,0,.723.2.893.893,0,0,0,.454-.1.432.432,0,0,0,.2-.387.412.412,0,0,0-.185-.353,1.2,1.2,0,0,0-.589-.1h-.236Z" transform="translate(-780.7 -244.1)"/></g><g transform="translate(30.244 0.976)"><path class="c" d="M798.439,247.594H797.9v-1.278h-.168a.911.911,0,0,0-.488.067.579.579,0,0,0-.219.37l-.084.336a.721.721,0,0,1-.2.387.92.92,0,0,1-.488.135l-.168.017-.084-.353.084-.017a.7.7,0,0,0,.252-.118.6.6,0,0,0,.135-.32l.05-.2a.722.722,0,0,1,.185-.353.846.846,0,0,1,.219-.151V246.1a.758.758,0,0,1-.437-.2.635.635,0,0,1-.185-.454.755.755,0,0,1,.3-.622,1.74,1.74,0,0,1,.925-.219h.875v2.994Zm-.891-2.607a.778.778,0,0,0-.538.151.425.425,0,0,0-.118.3.4.4,0,0,0,.168.336.906.906,0,0,0,.488.1h.336v-.892Z" transform="translate(-796 -244.6)"/></g><g transform="translate(33.76)"><path class="c" d="M818.683,242.77V241.02c0-.2.017-.471.017-.673a3.81,3.81,0,0,1-.252.572l-.992,1.85H816.9v-3.028h.538v1.648a6.116,6.116,0,0,1-.034.74c.084-.219.185-.4.3-.639l.925-1.749h.605v3.028Zm.151-3.785a.942.942,0,0,1-.269.3.914.914,0,0,1-.521.151,1,1,0,0,1-.5-.135,1.057,1.057,0,0,1-.286-.32l.269-.185a.888.888,0,0,0,.185.185.715.715,0,0,0,.673,0,.608.608,0,0,0,.185-.185Z" transform="translate(-816.9 -238.8)"/></g><g transform="translate(36.989 0.875)"><path class="c" d="M837.563,247.129a1.4,1.4,0,0,1-1.463-1.514,1.525,1.525,0,0,1,2.338-1.379l-.269.353a1.044,1.044,0,0,0-.589-.168.821.821,0,0,0-.74.421,1.4,1.4,0,0,0-.151.723,1.17,1.17,0,0,0,.236.841.811.811,0,0,0,.673.286,1.171,1.171,0,0,0,.622-.185l.252.336A1.31,1.31,0,0,1,837.563,247.129Z" transform="translate(-836.1 -244)"/></g><g transform="translate(39.698 0.925)"><path class="c" d="M854.471,244.754H853.6v2.59h-.538v-2.59H852.2V244.3h2.338Z" transform="translate(-852.2 -244.3)"/></g><g transform="translate(42.608 0.925)"><path class="c" d="M871.821,246.487a.808.808,0,0,1-.555.757,2.02,2.02,0,0,1-.707.084H869.5V244.3h.976a1.894,1.894,0,0,1,.673.084.75.75,0,0,1,.521.673.7.7,0,0,1-.572.656A.811.811,0,0,1,871.821,246.487Zm-1.3-1.733h-.471v.791h.5c.286,0,.555-.05.555-.387S870.8,244.754,870.526,244.754Zm.05,1.228h-.521v.925h.5c.32,0,.673-.05.673-.454C871.232,246.066,870.88,245.982,870.577,245.982Z" transform="translate(-869.5 -244.3)"/></g><g transform="translate(45.837 0.942)"><path class="c" d="M888.7,247.428V244.4h1.9l-.067.454h-1.278v.791h1.06v.437h-1.06v.891h1.4v.454Z" transform="translate(-888.7 -244.4)"/></g><g transform="translate(48.546 0.942)"><path class="c" d="M906.549,247.428v-1.379h-1.211v1.379H904.8V244.4h.538v1.211h1.211V244.4h.538v3.028Z" transform="translate(-904.8 -244.4)"/></g><g transform="translate(51.91 0.942)"><path class="c" d="M926.533,247.428v-1.379h-1.194v1.379H924.8V244.4h.538v1.211h1.211V244.4h.538v3.028Z" transform="translate(-924.8 -244.4)"/></g><g transform="translate(55.257 0.925)"><path class="c" d="M945.238,245.461h.437a1.48,1.48,0,0,1,.858.219.852.852,0,0,1,.353.723.835.835,0,0,1-.353.723,1.749,1.749,0,0,1-.925.2H944.7V244.3h.538Zm.3,1.43a1.571,1.571,0,0,0,.538-.067.4.4,0,0,0,.252-.421.449.449,0,0,0-.2-.4,1.065,1.065,0,0,0-.572-.1h-.32v.992Zm2.271-2.574v3.028h-.538v-3.028Z" transform="translate(-944.7 -244.3)"/></g><g transform="translate(59.429)"><path class="c" d="M971.283,242.77V241.02c0-.2.017-.471.017-.673a3.811,3.811,0,0,1-.252.572l-.992,1.85H969.5v-3.028h.538v1.648a6.116,6.116,0,0,1-.034.74c.084-.219.185-.4.3-.639l.925-1.749h.606v3.028Zm.151-3.785a.942.942,0,0,1-.269.3.914.914,0,0,1-.521.151.889.889,0,0,1-.488-.135,1.055,1.055,0,0,1-.286-.32l.269-.185a.891.891,0,0,0,.185.185.715.715,0,0,0,.673,0,.611.611,0,0,0,.185-.185Z" transform="translate(-969.5 -238.8)"/></g><g transform="translate(63.634 0.942)"><path class="c" d="M996.754,247.428l-.286-.791h-1.127l-.286.791H994.5l1.127-3.028h.622l1.11,3.028Zm-.858-2.59-.437,1.362h.875Z" transform="translate(-994.5 -244.4)"/></g><g transform="translate(66.443 0.925)"><path class="c" d="M1012.31,245.562a4.7,4.7,0,0,1,.168.521c.067-.236.118-.37.185-.572l.437-1.211h.555l-.875,2.321a1.68,1.68,0,0,1-.286.538.984.984,0,0,1-.69.252h-.084l-.084-.353.118-.034a.916.916,0,0,0,.32-.135.781.781,0,0,0,.235-.387l.034-.118-.236.034-.908-2.119h.589Z" transform="translate(-1011.2 -244.3)"/></g><g transform="translate(69.555 0.908)"><path class="c" d="M1031.987,244.536l-.067.017a.7.7,0,0,0-.252.118.391.391,0,0,0-.118.252l-.067.235a.938.938,0,0,1-.151.353.494.494,0,0,1-.235.151,1.063,1.063,0,0,1,.2.118.731.731,0,0,1,.185.336l.135.488a.747.747,0,0,0,.1.2.511.511,0,0,0,.2.1l.118.034-.067.353-.134-.017a.914.914,0,0,1-.488-.118.648.648,0,0,1-.219-.4l-.1-.454a.628.628,0,0,0-.151-.336.462.462,0,0,0-.353-.1h-.286v1.4h-.538v-3.028h.538v1.211h.235a.606.606,0,0,0,.437-.1.619.619,0,0,0,.151-.353l.051-.269a.534.534,0,0,1,.168-.353.855.855,0,0,1,.437-.151l.185-.017Z" transform="translate(-1029.7 -244.2)"/></g><g transform="translate(72.465 0.942)"><path class="c" d="M1047.555,244.4v2.59h1.06V244.4h.538v2.59h.336v1.228h-.454v-.791H1047V244.4Z" transform="translate(-1047 -244.4)"/></g><g transform="translate(75.661 0.942)"><path class="c" d="M1067.783,247.428v-1.749c0-.2.017-.471.017-.673a3.822,3.822,0,0,1-.252.572l-.992,1.85H1066V244.4h.538v1.648a6.115,6.115,0,0,1-.034.74c.084-.219.185-.4.3-.639l.925-1.749h.606v3.028Z" transform="translate(-1066 -244.4)"/></g><g transform="translate(78.891 0.892)"><path class="c" d="M1086.63,247.229a1.573,1.573,0,0,1-.033-3.129,1.377,1.377,0,0,1,1.413,1.564C1088.009,246.573,1087.605,247.229,1086.63,247.229Zm-.033-2.708a.712.712,0,0,0-.64.32,1.6,1.6,0,0,0-.151.791,1.832,1.832,0,0,0,.185.908.7.7,0,0,0,.656.286c.673,0,.774-.589.774-1.11C1087.421,245.126,1087.337,244.521,1086.6,244.521Z" transform="translate(-1085.2 -244.1)"/></g><g transform="translate(82.608 0.942)"><path class="c" d="M1109.05,247.428v-1.379h-1.211v1.379h-.539V244.4h.539v1.211h1.211V244.4h.538v3.028Z" transform="translate(-1107.3 -244.4)"/></g></g></g></svg>